<svg width="1703" height="1062" viewBox="0 0 1703 1062" fill="none" xmlns="http://www.w3.org/2000/svg">
<g clip-path="url(#clip0_305_2157)">
<g clip-path="url(#clip1_305_2157)">
<g clip-path="url(#clip2_305_2157)">
<g clip-path="url(#clip3_305_2157)">
<g clip-path="url(#clip4_305_2157)">
<g clip-path="url(#clip5_305_2157)">
<g clip-path="url(#clip6_305_2157)">
<g clip-path="url(#clip7_305_2157)">
<g clip-path="url(#clip8_305_2157)">
<path d="M410.313 602.465H326.257V580.649H355.131V491.888H326.257V470.072H410.313V491.888H381.652V580.649H410.313V602.465ZM435.123 602.465V505.148C439.828 503.865 445.632 502.653 452.533 501.512C459.463 500.372 466.991 499.801 475.119 499.801C483.104 499.801 489.734 500.899 495.01 503.095C500.286 505.319 504.449 508.456 507.501 512.506C510.581 516.584 512.762 521.432 514.045 527.05C515.329 532.696 515.97 538.942 515.97 545.786V602.465H489.663V549.208C489.663 539.797 488.594 533.024 486.455 528.889C484.316 524.754 479.967 522.687 473.408 522.687C471.412 522.687 469.444 522.758 467.505 522.9C465.594 523.043 463.569 523.257 461.43 523.542V602.465H435.123ZM542.064 602.465V505.148C546.769 503.865 552.573 502.653 559.474 501.512C566.404 500.372 573.933 499.801 582.06 499.801C590.045 499.801 596.675 500.899 601.951 503.095C607.227 505.319 611.39 508.456 614.442 512.506C617.522 516.584 619.689 521.432 620.944 527.05C622.256 532.696 622.912 538.942 622.912 545.786V602.465H596.604V549.208C596.604 539.797 595.535 533.024 593.396 528.889C591.257 524.754 586.908 522.687 580.349 522.687C578.353 522.687 576.385 522.758 574.446 522.9C572.535 523.043 570.51 523.257 568.372 523.542V602.465H542.064ZM736.44 551.988C736.44 559.973 735.3 567.203 733.018 573.676C730.737 580.178 727.529 585.782 723.394 590.487C719.258 595.193 714.311 598.829 708.55 601.395C702.761 603.962 696.302 605.245 689.172 605.245C682.043 605.245 675.598 603.962 669.837 601.395C664.048 598.829 659.058 595.193 654.866 590.487C650.645 585.782 647.394 580.178 645.113 573.676C642.831 567.203 641.69 559.973 641.69 551.988C641.69 544.146 642.874 536.988 645.241 530.515C647.579 524.013 650.859 518.437 655.08 513.789C659.272 509.169 664.291 505.605 670.137 503.095C675.983 500.614 682.328 499.373 689.172 499.373C696.159 499.373 702.547 500.614 708.336 503.095C714.097 505.605 719.087 509.169 723.308 513.789C727.5 518.437 730.737 524.013 733.018 530.515C735.3 536.988 736.44 544.146 736.44 551.988ZM668.426 552.202C668.426 561.185 670.037 568.457 673.259 574.018C676.453 579.579 681.615 582.36 688.745 582.36C695.589 582.36 700.765 579.579 704.272 574.018C707.752 568.457 709.491 561.185 709.491 552.202C709.491 543.219 707.894 535.99 704.7 530.515C701.478 525.011 696.302 522.259 689.172 522.259C682.328 522.259 677.166 525.011 673.687 530.515C670.18 535.99 668.426 543.219 668.426 552.202ZM805.952 602.465H783.922C777.506 589.774 770.989 574.902 764.373 557.849C757.729 540.824 751.412 522.188 745.423 501.94H773.014C774.297 507.358 775.837 513.133 777.634 519.264C779.402 525.396 781.284 531.556 783.281 537.744C785.277 543.961 787.316 549.992 789.398 555.838C791.451 561.684 793.404 567.032 795.258 571.88C797.112 567.032 799.179 561.684 801.461 555.838C803.742 549.992 805.995 543.961 808.219 537.744C810.415 531.556 812.554 525.396 814.636 519.264C816.689 513.133 818.357 507.358 819.641 501.94H846.376C840.387 522.188 833.757 540.824 826.485 557.849C819.213 574.902 812.369 589.774 805.952 602.465ZM903.055 583.643C905.906 583.643 908.687 583.615 911.396 583.558C914.105 583.472 916.458 583.287 918.454 583.001V559.902C916.743 559.617 914.676 559.36 912.252 559.132C909.828 558.933 907.617 558.833 905.621 558.833C902.912 558.833 900.274 559.004 897.708 559.346C895.141 559.717 892.888 560.33 890.949 561.185C889.038 562.041 887.513 563.253 886.372 564.821C885.231 566.39 884.661 568.457 884.661 571.024C884.661 575.587 886.372 578.824 889.794 580.734C893.216 582.673 897.636 583.643 903.055 583.643ZM900.702 499.373C908.972 499.373 915.845 500.329 921.32 502.239C926.824 504.179 931.216 506.888 934.495 510.367C937.775 513.875 940.128 518.152 941.553 523.2C942.979 528.276 943.692 533.951 943.692 540.225V600.112C939.842 600.968 934.139 601.966 926.582 603.106C919.024 604.247 910.541 604.817 901.13 604.817C894.713 604.817 888.896 604.247 883.677 603.106C878.487 601.966 874.038 600.069 870.331 597.417C866.623 594.793 863.772 591.371 861.775 587.151C859.779 582.959 858.781 577.797 858.781 571.666C858.781 565.82 859.922 560.9 862.203 556.908C864.485 552.915 867.55 549.707 871.4 547.283C875.25 544.859 879.67 543.105 884.661 542.022C889.651 540.966 894.856 540.439 900.274 540.439C907.118 540.439 913.178 541.009 918.454 542.15V538.942C918.454 533.951 916.886 529.773 913.749 526.408C910.612 523.072 905.193 521.403 897.494 521.403C892.503 521.403 887.684 521.76 883.035 522.473C878.415 523.186 874.68 524.041 871.828 525.039L868.192 503.865C871.471 502.724 876.105 501.683 882.094 500.742C888.083 499.83 894.285 499.373 900.702 499.373ZM986.897 565.035V523.756H964.011V501.94H986.897V476.702L1013.2 472.424V501.94H1055.34V523.756H1013.2V564.394C1013.2 568.101 1013.56 571.095 1014.27 573.377C1014.99 575.658 1015.98 577.44 1017.27 578.724C1018.55 580.007 1020.12 580.863 1021.97 581.29C1023.83 581.718 1025.89 581.932 1028.18 581.932C1030.6 581.932 1032.84 581.861 1034.89 581.718C1036.97 581.576 1038.97 581.319 1040.88 580.948C1042.82 580.606 1044.82 580.078 1046.87 579.365C1048.95 578.652 1051.2 577.726 1053.63 576.585L1057.26 599.256C1052.42 601.253 1047.17 602.679 1041.52 603.534C1035.9 604.39 1030.46 604.817 1025.18 604.817C1019.05 604.817 1013.63 604.318 1008.93 603.32C1004.22 602.322 1000.23 600.397 996.949 597.545C993.669 594.694 991.174 590.658 989.463 585.44C987.752 580.249 986.897 573.448 986.897 565.035ZM1123.95 473.066C1123.95 478.199 1122.31 482.263 1119.03 485.257C1115.75 488.252 1111.83 489.749 1107.27 489.749C1102.71 489.749 1098.83 488.252 1095.63 485.257C1092.41 482.263 1090.8 478.199 1090.8 473.066C1090.8 467.79 1092.41 463.655 1095.63 460.661C1098.83 457.666 1102.71 456.169 1107.27 456.169C1111.83 456.169 1115.75 457.666 1119.03 460.661C1122.31 463.655 1123.95 467.79 1123.95 473.066ZM1159.67 577.013L1163.09 598.187C1157.67 600.754 1152.58 602.507 1147.82 603.449C1143.03 604.361 1138.64 604.817 1134.65 604.817C1127.8 604.817 1122.07 603.819 1117.45 601.823C1112.8 599.827 1109.09 596.932 1106.33 593.139C1103.53 589.375 1101.57 584.784 1100.43 579.365C1099.28 573.947 1098.71 567.744 1098.71 560.758V523.756H1070.91V501.94H1125.02V564.18C1125.02 570.168 1126.13 574.617 1128.36 577.526C1130.55 580.463 1134.22 581.932 1139.35 581.932C1141.78 581.932 1144.7 581.604 1148.12 580.948C1151.54 580.321 1155.39 579.009 1159.67 577.013ZM1233.67 602.465H1211.64C1205.23 589.774 1198.71 574.902 1192.1 557.849C1185.45 540.824 1179.13 522.188 1173.15 501.94H1200.74C1202.02 507.358 1203.56 513.133 1205.36 519.264C1207.12 525.396 1209.01 531.556 1211 537.744C1213 543.961 1215.04 549.992 1217.12 555.838C1219.17 561.684 1221.13 567.032 1222.98 571.88C1224.83 567.032 1226.9 561.684 1229.18 555.838C1231.46 549.992 1233.72 543.961 1235.94 537.744C1238.14 531.556 1240.28 525.396 1242.36 519.264C1244.41 513.133 1246.08 507.358 1247.36 501.94H1274.1C1268.11 522.188 1261.48 540.824 1254.21 557.849C1246.93 574.902 1240.09 589.774 1233.67 602.465ZM1283.72 553.058C1283.72 544.217 1285.08 536.446 1287.79 529.745C1290.5 523.043 1294.06 517.439 1298.48 512.934C1302.9 508.456 1307.96 505.077 1313.67 502.796C1319.37 500.514 1325.22 499.373 1331.2 499.373C1346.03 499.373 1357.3 503.751 1365 512.506C1372.7 521.289 1376.55 534.094 1376.55 550.919C1376.55 552.63 1376.5 554.412 1376.42 556.266C1376.36 558.12 1376.26 559.617 1376.12 560.758H1310.89C1310.89 567.317 1313.59 572.478 1319.01 576.243C1324.43 580.036 1331.42 581.932 1339.97 581.932C1345.25 581.932 1350.27 581.362 1355.03 580.221C1359.82 579.08 1363.86 577.94 1367.14 576.799L1370.77 599.256C1366.21 600.825 1361.36 602.151 1356.23 603.235C1351.1 604.29 1345.32 604.817 1338.9 604.817C1330.35 604.817 1322.68 603.705 1315.89 601.481C1309.13 599.285 1303.36 596.005 1298.57 591.642C1293.8 587.308 1290.14 581.932 1287.57 575.516C1285.01 569.099 1283.72 561.613 1283.72 553.058ZM1310.89 542.578H1351.1C1351.1 539.868 1350.74 537.259 1350.03 534.75C1349.31 532.269 1348.17 530.03 1346.6 528.034C1345.04 526.037 1343.04 524.426 1340.62 523.2C1338.19 522.002 1335.2 521.403 1331.63 521.403C1328.21 521.403 1325.24 521.974 1322.73 523.114C1320.25 524.255 1318.19 525.824 1316.53 527.82C1314.91 529.816 1313.62 532.097 1312.68 534.664C1311.77 537.231 1311.17 539.868 1310.89 542.578Z" fill="white"/>
</g>
</g>
</g>
</g>
</g>
</g>
</g>
<path d="M772.707 430.384V158.426H28.144V902.988H772.707V631.03H759.261V889.542H41.5858V171.872H759.261V430.384H772.707Z" fill="white"/>
</g>
</g>
<defs>
<clipPath id="clip0_305_2157">
<rect width="1702.8" height="1061.41" fill="white"/>
</clipPath>
<clipPath id="clip1_305_2157">
<rect width="1699.64" height="1062.27" fill="white" transform="translate(1.58301 -0.429688)"/>
</clipPath>
<clipPath id="clip2_305_2157">
<rect width="1050.38" height="149.076" fill="white" transform="translate(326.214 456.169)"/>
</clipPath>
<clipPath id="clip3_305_2157">
<rect width="1050.38" height="149.076" fill="white" transform="translate(326.214 456.169)"/>
</clipPath>
<clipPath id="clip4_305_2157">
<rect width="1050.38" height="149.076" fill="white" transform="translate(326.214 456.169)"/>
</clipPath>
<clipPath id="clip5_305_2157">
<rect width="1050.38" height="149.076" fill="white" transform="translate(326.214 456.169)"/>
</clipPath>
<clipPath id="clip6_305_2157">
<rect width="1050.38" height="149.076" fill="white" transform="translate(326.214 456.169)"/>
</clipPath>
<clipPath id="clip7_305_2157">
<rect width="1050.38" height="149.076" fill="white" transform="translate(326.214 456.169)"/>
</clipPath>
<clipPath id="clip8_305_2157">
<rect width="1050.38" height="149.076" fill="white" transform="translate(326.214 456.169)"/>
</clipPath>
</defs>
</svg>
